<svg xmlns="http://www.w3.org/2000/svg" width="640" height="400" viewBox="0 0 640 400">
<rect width="100%" height="100%" fill="#0f1419"/>
<text x="40" y="24" fill="#9ad1ff" font-family="monospace" font-size="14">ISO sketch 120-P-1001 (heuristic)</text>
<path d="M 40.0 40.0 L 600.0 40.0 L 582.5 360.0" fill="none" stroke="#5eead4" stroke-width="3"/>
<circle cx="40.0" cy="40.0" r="4" fill="#fbbf24"/>
<text x="46.0" y="34.0" fill="#94a3b8" font-family="monospace" font-size="10">P0</text>
<circle cx="600.0" cy="40.0" r="4" fill="#fbbf24"/>
<text x="606.0" y="34.0" fill="#94a3b8" font-family="monospace" font-size="10">P1</text>
<circle cx="582.5" cy="360.0" r="4" fill="#fbbf24"/>
<text x="588.5" y="354.0" fill="#94a3b8" font-family="monospace" font-size="10">P2</text>
<path d="M78.0 40.0 L86.0 40.0 M82.0 36.0 L82.0 44.0" stroke="#f472b6" stroke-width="1.5"/>
<path d="M120.0 40.0 L128.0 40.0 M124.0 36.0 L124.0 44.0" stroke="#f472b6" stroke-width="1.5"/>
<path d="M162.0 40.0 L170.0 40.0 M166.0 36.0 L166.0 44.0" stroke="#f472b6" stroke-width="1.5"/>
<path d="M204.0 40.0 L212.0 40.0 M208.0 36.0 L208.0 44.0" stroke="#f472b6" stroke-width="1.5"/>
<path d="M246.0 40.0 L254.0 40.0 M250.0 36.0 L250.0 44.0" stroke="#f472b6" stroke-width="1.5"/>
<path d="M288.0 40.0 L296.0 40.0 M292.0 36.0 L292.0 44.0" stroke="#f472b6" stroke-width="1.5"/>
<path d="M330.0 40.0 L338.0 40.0 M334.0 36.0 L334.0 44.0" stroke="#f472b6" stroke-width="1.5"/>
<path d="M372.0 40.0 L380.0 40.0 M376.0 36.0 L376.0 44.0" stroke="#f472b6" stroke-width="1.5"/>
<path d="M414.0 40.0 L422.0 40.0 M418.0 36.0 L418.0 44.0" stroke="#f472b6" stroke-width="1.5"/>
<path d="M456.0 40.0 L464.0 40.0 M460.0 36.0 L460.0 44.0" stroke="#f472b6" stroke-width="1.5"/>
<path d="M498.0 40.0 L506.0 40.0 M502.0 36.0 L502.0 44.0" stroke="#f472b6" stroke-width="1.5"/>
<path d="M540.0 40.0 L548.0 40.0 M544.0 36.0 L544.0 44.0" stroke="#f472b6" stroke-width="1.5"/>
<path d="M582.0 40.0 L590.0 40.0 M586.0 36.0 L586.0 44.0" stroke="#f472b6" stroke-width="1.5"/>
<path d="M582.0 296.0 L590.0 296.0 M586.0 292.0 L586.0 300.0" stroke="#f472b6" stroke-width="1.5"/>
<text x="40" y="388" fill="#64748b" font-family="monospace" font-size="11">120-VEPR-2010-N1 → 124-PKSA-0500-N1 | L=42.5 m</text>
</svg>