<svg xmlns="http://www.w3.org/2000/svg" width="640" height="400" viewBox="0 0 640 400">
<rect width="100%" height="100%" fill="#0f1419"/>
<text x="40" y="24" fill="#9ad1ff" font-family="monospace" font-size="14">ISO sketch 124-LPWP-2505 (heuristic)</text>
<path d="M 600.0 40.0 L 60.2 40.0 L 40.0 360.0" fill="none" stroke="#5eead4" stroke-width="3"/>
<circle cx="600.0" cy="40.0" r="4" fill="#fbbf24"/>
<text x="606.0" y="34.0" fill="#94a3b8" font-family="monospace" font-size="10">P0</text>
<circle cx="60.2" cy="40.0" r="4" fill="#fbbf24"/>
<text x="66.2" y="34.0" fill="#94a3b8" font-family="monospace" font-size="10">P1</text>
<circle cx="40.0" cy="360.0" r="4" fill="#fbbf24"/>
<text x="46.0" y="354.0" fill="#94a3b8" font-family="monospace" font-size="10">P2</text>
<path d="M515.0 40.0 L523.0 40.0 M519.0 36.0 L519.0 44.0" stroke="#f472b6" stroke-width="1.5"/>
<path d="M434.1 40.0 L442.1 40.0 M438.1 36.0 L438.1 44.0" stroke="#f472b6" stroke-width="1.5"/>
<path d="M353.1 40.0 L361.1 40.0 M357.1 36.0 L357.1 44.0" stroke="#f472b6" stroke-width="1.5"/>
<path d="M272.1 40.0 L280.1 40.0 M276.1 36.0 L276.1 44.0" stroke="#f472b6" stroke-width="1.5"/>
<path d="M191.2 40.0 L199.2 40.0 M195.2 36.0 L195.2 44.0" stroke="#f472b6" stroke-width="1.5"/>
<path d="M110.2 40.0 L118.2 40.0 M114.2 36.0 L114.2 44.0" stroke="#f472b6" stroke-width="1.5"/>
<path d="M42.7 253.3 L50.7 253.3 M46.7 249.3 L46.7 257.3" stroke="#f472b6" stroke-width="1.5"/>
<text x="40" y="388" fill="#64748b" font-family="monospace" font-size="11">124-PKSA-0500-N1 → 124-LPNP-2508 | L=21.5 m</text>
</svg>