<svg xmlns="http://www.w3.org/2000/svg" width="900" height="600" viewBox="0 0 900 600">
<rect width="100%" height="100%" fill="#f8fafc"/>
<text x="50" y="28" fill="#0f172a" font-family="sans-serif" font-size="18" font-weight="bold">GA / Plot Plan — TF-DEMO-PLANT</text>
<text x="50" y="48" fill="#64748b" font-family="sans-serif" font-size="11">DesignVolume AABB + equipment tags (2D top view)</text>
<rect x="50.0" y="50.0" width="400.0" height="500.0" fill="#3b82f6" fill-opacity="0.25" stroke="#3b82f6" stroke-width="2"/>
<text x="56.0" y="66.0" fill="#0f172a" font-family="monospace" font-size="12">VOL-A Area 120 Process</text>
<rect x="450.0" y="50.0" width="400.0" height="500.0" fill="#a855f7" fill-opacity="0.25" stroke="#a855f7" stroke-width="2"/>
<text x="456.0" y="66.0" fill="#0f172a" font-family="monospace" font-size="12">VOL-B Area 124 Package</text>
<rect x="400.0" y="216.7" width="100.0" height="166.7" fill="#ef4444" fill-opacity="0.25" stroke="#ef4444" stroke-width="2"/>
<text x="406.0" y="232.7" fill="#0f172a" font-family="monospace" font-size="12">VOL-C Battery Limit Corridor</text>
<rect x="238.0" y="306.7" width="36" height="20" rx="3" fill="#1e293b" stroke="#fbbf24" stroke-width="1.5"/>
<text x="256.0" y="320.7" text-anchor="middle" fill="#f8fafc" font-family="monospace" font-size="8">120-VEPR-2010</text>
<rect x="647.0" y="240.0" width="36" height="20" rx="3" fill="#1e293b" stroke="#fbbf24" stroke-width="1.5"/>
<text x="665.0" y="254.0" text-anchor="middle" fill="#f8fafc" font-family="monospace" font-size="8">124-PKSA-0500</text>
<rect x="411.0" y="206.7" width="36" height="20" rx="3" fill="#1e293b" stroke="#fbbf24" stroke-width="1.5"/>
<text x="429.0" y="220.7" text-anchor="middle" fill="#f8fafc" font-family="monospace" font-size="8">124-LPNP-2508</text>
<line x1="250.0" y1="300.0" x2="650.0" y2="300.0" stroke="#0ea5e9" stroke-width="1.5" stroke-dasharray="4 3"/>
<line x1="650.0" y1="300.0" x2="450.0" y2="300.0" stroke="#0ea5e9" stroke-width="1.5" stroke-dasharray="4 3"/>
<line x1="250.0" y1="300.0" x2="250.0" y2="300.0" stroke="#0ea5e9" stroke-width="1.5" stroke-dasharray="4 3"/>
<text x="50" y="584" fill="#64748b" font-family="sans-serif" font-size="10">volumes=3 equipment=3 lines=3</text>
</svg>