ISO-10303-21;
HEADER;
FILE_DESCRIPTION(('ViewDefinition [CoordinationView]'),'2;1');
FILE_NAME('','2026-09-08T00:57:55',(''),(''),'IfcOpenShell 0.8.5-1c5b825','IfcOpenShell 0.8.5-1c5b825','');
FILE_SCHEMA(('IFC4'));
ENDSEC;
DATA;
#1=IFCPROJECT('0CBYzlutP54BnfqhaMVE3i',$,'ThreadForge Pipe Rack',$,$,$,$,(#10),#5);
#2=IFCSIUNIT(*,.LENGTHUNIT.,.MILLI.,.METRE.);
#3=IFCSIUNIT(*,.AREAUNIT.,$,.SQUARE_METRE.);
#4=IFCSIUNIT(*,.VOLUMEUNIT.,$,.CUBIC_METRE.);
#5=IFCUNITASSIGNMENT((#4,#2,#3));
#6=IFCCARTESIANPOINT((0.,0.,0.));
#7=IFCDIRECTION((0.,0.,1.));
#8=IFCDIRECTION((1.,0.,0.));
#9=IFCAXIS2PLACEMENT3D(#6,#7,#8);
#10=IFCGEOMETRICREPRESENTATIONCONTEXT($,'Model',3,1.0000000000000001E-05,#9,$);
#11=IFCGEOMETRICREPRESENTATIONSUBCONTEXT('Box','Model',*,*,*,*,#10,$,.MODEL_VIEW.,$);
#12=IFCSITE('1Qt8RY6jr7mPNTg3TeQJSA',$,'RackSite',$,$,$,$,$,$,$,$,$,$,$);
#13=IFCBUILDING('1eXTsfx2z6hhrVm9km2oFy',$,'Rack',$,$,$,$,$,$,$,$,$);
#14=IFCBUILDINGSTOREY('2UkWmunH1CPONEqWHoV2lt',$,'L0',$,$,$,$,$,$,$);
#15=IFCRELAGGREGATES('22dXtiCOH61gHTupKjRPgu',$,$,$,#1,(#12));
#16=IFCRELAGGREGATES('18bTmP4QX2XA68Q6Y9W0Ox',$,$,$,#12,(#13));
#17=IFCRELAGGREGATES('0fNUr8nrT2ePjn$V9gTrC$',$,$,$,#13,(#14));
#23=IFCCARTESIANPOINT((0.,0.,0.));
#24=IFCBOUNDINGBOX(#23,1.2,1.2,8.);
#25=IFCSHAPEREPRESENTATION(#11,'Box','BoundingBox',(#24));
#26=IFCPRODUCTDEFINITIONSHAPE($,$,(#25));
#27=IFCCOLUMN('3$Yu5JtXbEuf2wMWt31Viq',$,'COL-SW',$,$,#33,#26,$,$);
#28=IFCRELCONTAINEDINSPATIALSTRUCTURE('2GzuoKg5r31w1NELYOpcM2',$,$,$,(#88,#118,#73,#103,#58,#43,#27,#133),#14);
#29=IFCCARTESIANPOINT((47.399999999999999,41.399999999999999,0.));
#30=IFCDIRECTION((0.,0.,1.));
#31=IFCDIRECTION((1.,0.,0.));
#32=IFCAXIS2PLACEMENT3D(#29,#30,#31);
#33=IFCLOCALPLACEMENT($,#32);
#39=IFCCARTESIANPOINT((0.,0.,0.));
#40=IFCBOUNDINGBOX(#39,1.2,1.2,8.);
#41=IFCSHAPEREPRESENTATION(#11,'Box','BoundingBox',(#40));
#42=IFCPRODUCTDEFINITIONSHAPE($,$,(#41));
#43=IFCCOLUMN('3RJp434C99jQD5CKxJwfBj',$,'COL-NW',$,$,#48,#42,$,$);
#44=IFCCARTESIANPOINT((47.399999999999999,42.600000000000001,0.));
#45=IFCDIRECTION((0.,0.,1.));
#46=IFCDIRECTION((1.,0.,0.));
#47=IFCAXIS2PLACEMENT3D(#44,#45,#46);
#48=IFCLOCALPLACEMENT($,#47);
#54=IFCCARTESIANPOINT((0.,0.,0.));
#55=IFCBOUNDINGBOX(#54,1.2,1.2,8.);
#56=IFCSHAPEREPRESENTATION(#11,'Box','BoundingBox',(#55));
#57=IFCPRODUCTDEFINITIONSHAPE($,$,(#56));
#58=IFCCOLUMN('0Gw831lMX4WvitihTs90Oi',$,'COL-SE',$,$,#63,#57,$,$);
#59=IFCCARTESIANPOINT((50.399999999999999,41.399999999999999,0.));
#60=IFCDIRECTION((0.,0.,1.));
#61=IFCDIRECTION((1.,0.,0.));
#62=IFCAXIS2PLACEMENT3D(#59,#60,#61);
#63=IFCLOCALPLACEMENT($,#62);
#69=IFCCARTESIANPOINT((0.,0.,0.));
#70=IFCBOUNDINGBOX(#69,1.2,1.2,8.);
#71=IFCSHAPEREPRESENTATION(#11,'Box','BoundingBox',(#70));
#72=IFCPRODUCTDEFINITIONSHAPE($,$,(#71));
#73=IFCCOLUMN('3bgJOsFWjEHOan7uJDMryM',$,'COL-NE',$,$,#78,#72,$,$);
#74=IFCCARTESIANPOINT((50.399999999999999,42.600000000000001,0.));
#75=IFCDIRECTION((0.,0.,1.));
#76=IFCDIRECTION((1.,0.,0.));
#77=IFCAXIS2PLACEMENT3D(#74,#75,#76);
#78=IFCLOCALPLACEMENT($,#77);
#84=IFCCARTESIANPOINT((0.,0.,0.));
#85=IFCBOUNDINGBOX(#84,16.,0.29999999999999999,0.29999999999999999);
#86=IFCSHAPEREPRESENTATION(#11,'Box','BoundingBox',(#85));
#87=IFCPRODUCTDEFINITIONSHAPE($,$,(#86));
#88=IFCBEAM('1_m7WRQKrCsRaPjc5vBZEV',$,'BEAM-S-HIGH',$,$,#93,#87,$,$);
#89=IFCCARTESIANPOINT((40.,39.600000000000001,9.6999999999999993));
#90=IFCDIRECTION((0.,0.,1.));
#91=IFCDIRECTION((1.,0.,0.));
#92=IFCAXIS2PLACEMENT3D(#89,#90,#91);
#93=IFCLOCALPLACEMENT($,#92);
#99=IFCCARTESIANPOINT((0.,0.,0.));
#100=IFCBOUNDINGBOX(#99,16.,0.29999999999999999,0.29999999999999999);
#101=IFCSHAPEREPRESENTATION(#11,'Box','BoundingBox',(#100));
#102=IFCPRODUCTDEFINITIONSHAPE($,$,(#101));
#103=IFCBEAM('0b8QxIdV96ueAjwDh43DiX',$,'BEAM-N-MID',$,$,#108,#102,$,$);
#104=IFCCARTESIANPOINT((40.,45.100000000000001,6.7000000000000002));
#105=IFCDIRECTION((0.,0.,1.));
#106=IFCDIRECTION((1.,0.,0.));
#107=IFCAXIS2PLACEMENT3D(#104,#105,#106);
#108=IFCLOCALPLACEMENT($,#107);
#114=IFCCARTESIANPOINT((0.,0.,0.));
#115=IFCBOUNDINGBOX(#114,16.,0.29999999999999999,0.29999999999999999);
#116=IFCSHAPEREPRESENTATION(#11,'Box','BoundingBox',(#115));
#117=IFCPRODUCTDEFINITIONSHAPE($,$,(#116));
#118=IFCBEAM('1Rgxg8QoXCKu$64m1jbfWn',$,'BEAM-S-LOW',$,$,#123,#117,$,$);
#119=IFCCARTESIANPOINT((40.,39.600000000000001,3.7000000000000002));
#120=IFCDIRECTION((0.,0.,1.));
#121=IFCDIRECTION((1.,0.,0.));
#122=IFCAXIS2PLACEMENT3D(#119,#120,#121);
#123=IFCLOCALPLACEMENT($,#122);
#129=IFCCARTESIANPOINT((0.,0.,0.));
#130=IFCBOUNDINGBOX(#129,3.,3.,4.);
#131=IFCSHAPEREPRESENTATION(#11,'Box','BoundingBox',(#130));
#132=IFCPRODUCTDEFINITIONSHAPE($,$,(#131));
#133=IFCTANK('02OCm4SZj4jxhnKg2dMCNm',$,'TK-RACK-01',$,$,#138,#132,$,$);
#134=IFCCARTESIANPOINT((47.,48.,0.));
#135=IFCDIRECTION((0.,0.,1.));
#136=IFCDIRECTION((1.,0.,0.));
#137=IFCAXIS2PLACEMENT3D(#134,#135,#136);
#138=IFCLOCALPLACEMENT($,#137);
ENDSEC;
END-ISO-10303-21;
